<?xml version="1.0" encoding="UTF-8"?><svg xmlns="http://www.w3.org/2000/svg" xmlns:xlink="http://www.w3.org/1999/xlink" viewBox="0 0 144 252"><defs><style>.cls-1,.cls-2,.cls-3{fill:#231f20;}.cls-1,.cls-3{font-family:Copperplate, Copperplate;font-size:4px;}.cls-4{font-family:SimSong-Regular-GBpc-EUC-H, SimSong;font-size:19px;}.cls-4,.cls-5{stroke:#231f20;}.cls-4,.cls-6,.cls-7,.cls-8{stroke-miterlimit:10;}.cls-4,.cls-7{fill:#c3a255;}.cls-9{letter-spacing:.09em;}.cls-2{font-size:5px;}.cls-2,.cls-10,.cls-11,.cls-6,.cls-7,.cls-8{font-family:Copperplate-Bold, Copperplate;font-weight:700;}.cls-12,.cls-10,.cls-11{fill:#c4a255;}.cls-10,.cls-3,.cls-11,.cls-13,.cls-6,.cls-8{isolation:isolate;}.cls-10,.cls-8{font-size:39.73px;}.cls-5{font-size:7px;}.cls-3{letter-spacing:.09em;}.cls-14{font-size:11px;stroke:#be1e2d;}.cls-15{letter-spacing:0em;}.cls-11,.cls-6{font-size:21.67px;}.cls-6,.cls-8{fill:none;stroke:#be202e;stroke-width:.85px;}.cls-7{stroke-width:.5px;}</style></defs><g id="brush_and_phone"><image width="634" height="1047" transform="scale(.23 .24)" xlink:href="final1.png"/><text class="cls-4" transform="translate(15 136.43)"><tspan x="0" y="0">641.751.9292</tspan></text></g><g id="qr"><g id="Layer_1"><g><rect class="cls-12" x="4.75" y="7.27" width="1.41" height="9.52"/><rect class="cls-12" x="4.75" y="18.14" width="1.41" height="1.36"/><rect class="cls-12" x="4.75" y="20.86" width="1.41" height="1.36"/><rect class="cls-12" x="4.75" y="23.58" width="1.41" height="4.07"/><rect class="cls-12" x="4.75" y="33.09" width="1.41" height="1.36"/><rect class="cls-12" x="4.75" y="37.17" width="1.41" height="1.36"/><rect class="cls-12" x="4.75" y="43.97" width="1.41" height="1.36"/><rect class="cls-12" x="4.75" y="48.04" width="1.41" height="9.52"/><rect class="cls-12" x="6.15" y="7.27" width="1.41" height="1.36"/><rect class="cls-12" x="6.15" y="15.42" width="1.41" height="1.36"/><rect class="cls-12" x="6.15" y="20.86" width="1.41" height="1.36"/><rect class="cls-12" x="6.15" y="24.93" width="1.41" height="4.07"/><rect class="cls-12" x="6.15" y="33.09" width="1.41" height="1.36"/><rect class="cls-12" x="6.15" y="37.17" width="1.41" height="4.07"/><rect class="cls-12" x="6.15" y="42.61" width="1.41" height="1.36"/><rect class="cls-12" x="6.15" y="48.04" width="1.41" height="1.36"/><rect class="cls-12" x="6.15" y="56.2" width="1.41" height="1.36"/><rect class="cls-12" x="7.55" y="7.27" width="1.41" height="1.36"/><rect class="cls-12" x="7.55" y="9.98" width="1.41" height="4.07"/><rect class="cls-12" x="7.55" y="15.42" width="1.41" height="1.36"/><rect class="cls-12" x="7.55" y="18.14" width="1.41" height="1.36"/><rect class="cls-12" x="7.55" y="20.86" width="1.41" height="5.43"/><rect class="cls-12" x="7.55" y="30.38" width="1.41" height="4.07"/><rect class="cls-12" x="7.55" y="35.81" width="1.41" height="1.36"/><rect class="cls-12" x="7.55" y="38.52" width="1.41" height="4.07"/><rect class="cls-12" x="7.55" y="48.04" width="1.41" height="1.36"/><rect class="cls-12" x="7.55" y="50.76" width="1.41" height="4.07"/><rect class="cls-12" x="7.55" y="56.2" width="1.41" height="1.36"/><rect class="cls-12" x="8.96" y="7.27" width="1.41" height="1.36"/><rect class="cls-12" x="8.96" y="9.98" width="1.41" height="4.07"/><rect class="cls-12" x="8.96" y="15.42" width="1.41" height="1.36"/><rect class="cls-12" x="8.96" y="18.14" width="1.41" height="1.36"/><rect class="cls-12" x="8.96" y="20.86" width="1.41" height="1.36"/><rect class="cls-12" x="8.96" y="26.29" width="1.41" height="1.36"/><rect class="cls-12" x="8.96" y="30.38" width="1.41" height="5.43"/><rect class="cls-12" x="8.96" y="41.25" width="1.41" height="4.07"/><rect class="cls-12" x="8.96" y="48.04" width="1.41" height="1.36"/><rect class="cls-12" x="8.96" y="50.76" width="1.41" height="4.07"/><rect class="cls-12" x="8.96" y="56.2" width="1.41" height="1.36"/><rect class="cls-12" x="10.37" y="7.27" width="1.41" height="1.36"/><rect class="cls-12" x="10.37" y="9.98" width="1.41" height="4.07"/><rect class="cls-12" x="10.37" y="15.42" width="1.41" height="1.36"/><rect class="cls-12" x="10.37" y="22.22" width="1.41" height="5.43"/><rect class="cls-12" x="10.37" y="30.38" width="1.41" height="2.72"/><rect class="cls-12" x="10.37" y="34.45" width="1.41" height="1.36"/><rect class="cls-12" x="10.37" y="37.17" width="1.41" height="1.36"/><rect class="cls-12" x="10.37" y="41.25" width="1.41" height="4.07"/><rect class="cls-12" x="10.37" y="48.04" width="1.41" height="1.36"/><rect class="cls-12" x="10.37" y="50.76" width="1.41" height="4.07"/><rect class="cls-12" x="10.37" y="56.2" width="1.41" height="1.36"/><rect class="cls-12" x="11.77" y="7.27" width="1.41" height="1.36"/><rect class="cls-12" x="11.77" y="15.42" width="1.41" height="1.36"/><rect class="cls-12" x="11.77" y="18.14" width="1.41" height="1.36"/><rect class="cls-12" x="11.77" y="22.22" width="1.41" height="4.07"/><rect class="cls-12" x="11.77" y="29.02" width="1.41" height="1.36"/><rect class="cls-12" x="11.77" y="31.74" width="1.41" height="2.72"/><rect class="cls-12" x="11.77" y="38.52" width="1.41" height="4.07"/><rect class="cls-12" x="11.77" y="43.97" width="1.41" height="2.72"/><rect class="cls-12" x="11.77" y="48.04" width="1.41" height="1.36"/><rect class="cls-12" x="11.77" y="56.2" width="1.41" height="1.36"/><rect class="cls-12" x="13.17" y="7.27" width="1.41" height="9.52"/><rect class="cls-12" x="13.17" y="18.14" width="1.41" height="1.36"/><rect class="cls-12" x="13.17" y="20.86" width="1.41" height="1.36"/><rect class="cls-12" x="13.17" y="23.58" width="1.41" height="1.36"/><rect class="cls-12" x="13.17" y="26.29" width="1.41" height="1.36"/><rect class="cls-12" x="13.17" y="29.02" width="1.41" height="1.36"/><rect class="cls-12" x="13.17" y="31.74" width="1.41" height="1.36"/><rect class="cls-12" x="13.17" y="34.45" width="1.41" height="1.36"/><rect class="cls-12" x="13.17" y="37.17" width="1.41" height="1.36"/><rect class="cls-12" x="13.17" y="39.88" width="1.41" height="1.36"/><rect class="cls-12" x="13.17" y="42.61" width="1.41" height="1.36"/><rect class="cls-12" x="13.17" y="45.33" width="1.41" height="1.36"/><rect class="cls-12" x="13.17" y="48.04" width="1.41" height="9.52"/><rect class="cls-12" x="14.58" y="18.14" width="1.41" height="5.43"/><rect class="cls-12" x="14.58" y="27.65" width="1.41" height="1.36"/><rect class="cls-12" x="14.58" y="31.74" width="1.41" height="5.43"/><rect class="cls-12" x="15.99" y="7.27" width="1.41" height="2.72"/><rect class="cls-12" x="15.99" y="11.34" width="1.41" height="1.36"/><rect class="cls-12" x="15.99" y="15.42" width="1.41" height="2.72"/><rect class="cls-12" x="15.99" y="19.5" width="1.41" height="1.36"/><rect class="cls-12" x="15.99" y="27.65" width="1.41" height="4.07"/><rect class="cls-12" x="15.99" y="34.45" width="1.41" height="4.07"/><rect class="cls-12" x="15.99" y="41.25" width="1.41" height="1.36"/><rect class="cls-12" x="15.99" y="43.97" width="1.41" height="6.8"/><rect class="cls-12" x="15.99" y="52.12" width="1.41" height="2.72"/><rect class="cls-12" x="15.99" y="56.2" width="1.41" height="1.36"/><rect class="cls-12" x="17.39" y="7.27" width="1.41" height="1.36"/><rect class="cls-12" x="17.39" y="12.7" width="1.41" height="1.36"/><rect class="cls-12" x="17.39" y="19.5" width="1.41" height="1.36"/><rect class="cls-12" x="17.39" y="22.22" width="1.41" height="1.36"/><rect class="cls-12" x="17.39" y="26.29" width="1.41" height="2.72"/><rect class="cls-12" x="17.39" y="31.74" width="1.41" height="4.07"/><rect class="cls-12" x="17.39" y="37.17" width="1.41" height="1.36"/><rect class="cls-12" x="17.39" y="39.88" width="1.41" height="1.36"/><rect class="cls-12" x="17.39" y="48.04" width="1.41" height="1.36"/><rect class="cls-12" x="17.39" y="52.12" width="1.41" height="5.43"/><rect class="cls-12" x="18.8" y="8.63" width="1.41" height="2.72"/><rect class="cls-12" x="18.8" y="14.06" width="1.41" height="4.07"/><rect class="cls-12" x="18.8" y="20.86" width="1.41" height="1.36"/><rect class="cls-12" x="18.8" y="23.58" width="1.41" height="1.36"/><rect class="cls-12" x="18.8" y="27.65" width="1.41" height="1.36"/><rect class="cls-12" x="18.8" y="30.38" width="1.41" height="1.36"/><rect class="cls-12" x="18.8" y="33.09" width="1.41" height="1.36"/><rect class="cls-12" x="18.8" y="41.25" width="1.41" height="4.07"/><rect class="cls-12" x="18.8" y="48.04" width="1.41" height="1.36"/><rect class="cls-12" x="18.8" y="52.12" width="1.41" height="5.43"/><rect class="cls-12" x="20.21" y="7.27" width="1.41" height="1.36"/><rect class="cls-12" x="20.21" y="9.98" width="1.41" height="1.36"/><rect class="cls-12" x="20.21" y="18.14" width="1.41" height="4.07"/><rect class="cls-12" x="20.21" y="26.29" width="1.41" height="1.36"/><rect class="cls-12" x="20.21" y="33.09" width="1.41" height="6.8"/><rect class="cls-12" x="20.21" y="42.61" width="1.41" height="1.36"/><rect class="cls-12" x="20.21" y="45.33" width="1.41" height="1.36"/><rect class="cls-12" x="20.21" y="48.04" width="1.41" height="1.36"/><rect class="cls-12" x="20.21" y="52.12" width="1.41" height="5.43"/><rect class="cls-12" x="21.6" y="9.98" width="1.41" height="1.36"/><rect class="cls-12" x="21.6" y="15.42" width="1.41" height="2.72"/><rect class="cls-12" x="21.6" y="19.5" width="1.41" height="2.72"/><rect class="cls-12" x="21.6" y="26.29" width="1.41" height="1.36"/><rect class="cls-12" x="21.6" y="30.38" width="1.41" height="1.36"/><rect class="cls-12" x="21.6" y="35.81" width="1.41" height="1.36"/><rect class="cls-12" x="21.6" y="42.61" width="1.41" height="1.36"/><rect class="cls-12" x="21.6" y="46.68" width="1.41" height="5.43"/><rect class="cls-12" x="21.6" y="53.47" width="1.41" height="1.36"/><rect class="cls-12" x="21.6" y="56.2" width="1.41" height="1.36"/><rect class="cls-12" x="23.01" y="8.63" width="1.41" height="2.72"/><rect class="cls-12" x="23.01" y="12.7" width="1.41" height="1.36"/><rect class="cls-12" x="23.01" y="19.5" width="1.41" height="9.52"/><rect class="cls-12" x="23.01" y="33.09" width="1.41" height="1.36"/><rect class="cls-12" x="23.01" y="37.17" width="1.41" height="1.36"/><rect class="cls-12" x="23.01" y="41.25" width="1.41" height="1.36"/><rect class="cls-12" x="23.01" y="43.97" width="1.41" height="1.36"/><rect class="cls-12" x="23.01" y="46.68" width="1.41" height="1.36"/><rect class="cls-12" x="23.01" y="50.76" width="1.41" height="1.36"/><rect class="cls-12" x="23.01" y="56.2" width="1.41" height="1.36"/><rect class="cls-12" x="24.42" y="7.27" width="1.41" height="2.72"/><rect class="cls-12" x="24.42" y="12.7" width="1.41" height="1.36"/><rect class="cls-12" x="24.42" y="15.42" width="1.41" height="1.36"/><rect class="cls-12" x="24.42" y="18.14" width="1.41" height="1.36"/><rect class="cls-12" x="24.42" y="23.58" width="1.41" height="1.36"/><rect class="cls-12" x="24.42" y="30.38" width="1.41" height="4.07"/><rect class="cls-12" x="24.42" y="35.81" width="1.41" height="1.36"/><rect class="cls-12" x="24.42" y="39.88" width="1.41" height="1.36"/><rect class="cls-12" x="24.42" y="42.61" width="1.41" height="1.36"/><rect class="cls-12" x="24.42" y="45.33" width="1.41" height="4.07"/><rect class="cls-12" x="24.42" y="50.76" width="1.41" height="6.8"/><rect class="cls-12" x="25.82" y="11.34" width="1.41" height="4.07"/><rect class="cls-12" x="25.82" y="18.14" width="1.41" height="2.72"/><rect class="cls-12" x="25.82" y="23.58" width="1.41" height="2.72"/><rect class="cls-12" x="25.82" y="27.65" width="1.41" height="1.36"/><rect class="cls-12" x="25.82" y="33.09" width="1.41" height="4.07"/><rect class="cls-12" x="25.82" y="38.52" width="1.41" height="2.72"/><rect class="cls-12" x="25.82" y="43.97" width="1.41" height="1.36"/><rect class="cls-12" x="25.82" y="49.4" width="1.41" height="1.36"/><rect class="cls-12" x="25.82" y="52.12" width="1.41" height="4.07"/><rect class="cls-12" x="27.23" y="7.27" width="1.41" height="1.36"/><rect class="cls-12" x="27.23" y="15.42" width="1.41" height="2.72"/><rect class="cls-12" x="27.23" y="20.86" width="1.41" height="4.07"/><rect class="cls-12" x="27.23" y="26.29" width="1.41" height="1.36"/><rect class="cls-12" x="27.23" y="33.09" width="1.41" height="1.36"/><rect class="cls-12" x="27.23" y="39.88" width="1.41" height="1.36"/><rect class="cls-12" x="27.23" y="45.33" width="1.41" height="2.72"/><rect class="cls-12" x="27.23" y="50.76" width="1.41" height="2.72"/><rect class="cls-12" x="27.23" y="56.2" width="1.41" height="1.36"/><rect class="cls-12" x="28.64" y="9.98" width="1.41" height="1.36"/><rect class="cls-12" x="28.64" y="14.06" width="1.41" height="1.36"/><rect class="cls-12" x="28.64" y="20.86" width="1.41" height="1.36"/><rect class="cls-12" x="28.64" y="23.58" width="1.41" height="2.72"/><rect class="cls-12" x="28.64" y="29.02" width="1.41" height="1.36"/><rect class="cls-12" x="28.64" y="31.74" width="1.41" height="5.43"/><rect class="cls-12" x="28.64" y="38.52" width="1.41" height="1.36"/><rect class="cls-12" x="28.64" y="41.25" width="1.41" height="4.07"/><rect class="cls-12" x="28.64" y="49.4" width="1.41" height="1.36"/><rect class="cls-12" x="28.64" y="56.2" width="1.41" height="1.36"/><rect class="cls-12" x="30.05" y="9.98" width="1.41" height="6.8"/><rect class="cls-12" x="30.05" y="18.14" width="1.41" height="2.72"/><rect class="cls-12" x="30.05" y="23.58" width="1.41" height="2.72"/><rect class="cls-12" x="30.05" y="30.38" width="1.41" height="2.72"/><rect class="cls-12" x="30.05" y="37.17" width="1.41" height="1.36"/><rect class="cls-12" x="30.05" y="42.61" width="1.41" height="1.36"/><rect class="cls-12" x="30.05" y="46.68" width="1.41" height="4.07"/><rect class="cls-12" x="30.05" y="53.47" width="1.41" height="4.07"/><rect class="cls-12" x="31.44" y="9.98" width="1.41" height="1.36"/><rect class="cls-12" x="31.44" y="12.7" width="1.41" height="2.72"/><rect class="cls-12" x="31.44" y="16.79" width="1.41" height="2.72"/><rect class="cls-12" x="31.44" y="20.86" width="1.41" height="1.36"/><rect class="cls-12" x="31.44" y="23.58" width="1.41" height="2.72"/><rect class="cls-12" x="31.44" y="30.38" width="1.41" height="1.36"/><rect class="cls-12" x="31.44" y="34.45" width="1.41" height="2.72"/><rect class="cls-12" x="31.44" y="39.88" width="1.41" height="1.36"/><rect class="cls-12" x="31.44" y="43.97" width="1.41" height="2.72"/><rect class="cls-12" x="31.44" y="49.4" width="1.41" height="2.72"/><rect class="cls-12" x="31.44" y="54.84" width="1.41" height="1.36"/><rect class="cls-12" x="32.85" y="11.34" width="1.41" height="5.43"/><rect class="cls-12" x="32.85" y="19.5" width="1.41" height="6.8"/><rect class="cls-12" x="32.85" y="27.65" width="1.41" height="1.36"/><rect class="cls-12" x="32.85" y="31.74" width="1.41" height="4.07"/><rect class="cls-12" x="32.85" y="37.17" width="1.41" height="1.36"/><rect class="cls-12" x="32.85" y="43.97" width="1.41" height="1.36"/><rect class="cls-12" x="32.85" y="48.04" width="1.41" height="1.36"/><rect class="cls-12" x="32.85" y="50.76" width="1.41" height="1.36"/><rect class="cls-12" x="32.85" y="56.2" width="1.41" height="1.36"/><rect class="cls-12" x="34.26" y="7.27" width="1.41" height="5.43"/><rect class="cls-12" x="34.26" y="16.79" width="1.41" height="1.36"/><rect class="cls-12" x="34.26" y="19.5" width="1.41" height="1.36"/><rect class="cls-12" x="34.26" y="27.65" width="1.41" height="1.36"/><rect class="cls-12" x="34.26" y="30.38" width="1.41" height="2.72"/><rect class="cls-12" x="34.26" y="34.45" width="1.41" height="2.72"/><rect class="cls-12" x="34.26" y="39.88" width="1.41" height="1.36"/><rect class="cls-12" x="34.26" y="45.33" width="1.41" height="2.72"/><rect class="cls-12" x="34.26" y="49.4" width="1.41" height="1.36"/><rect class="cls-12" x="34.26" y="52.12" width="1.41" height="1.36"/><rect class="cls-12" x="34.26" y="54.84" width="1.41" height="1.36"/><rect class="cls-12" x="35.66" y="7.27" width="1.41" height="1.36"/><rect class="cls-12" x="35.66" y="9.98" width="1.41" height="1.36"/><rect class="cls-12" x="35.66" y="12.7" width="1.41" height="4.07"/><rect class="cls-12" x="35.66" y="18.14" width="1.41" height="2.72"/><rect class="cls-12" x="35.66" y="22.22" width="1.41" height="1.36"/><rect class="cls-12" x="35.66" y="24.93" width="1.41" height="2.72"/><rect class="cls-12" x="35.66" y="30.38" width="1.41" height="1.36"/><rect class="cls-12" x="35.66" y="34.45" width="1.41" height="2.72"/><rect class="cls-12" x="35.66" y="38.52" width="1.41" height="1.36"/><rect class="cls-12" x="35.66" y="42.61" width="1.41" height="1.36"/><rect class="cls-12" x="35.66" y="48.04" width="1.41" height="1.36"/><rect class="cls-12" x="35.66" y="53.47" width="1.41" height="2.72"/><rect class="cls-12" x="37.07" y="8.63" width="1.41" height="4.07"/><rect class="cls-12" x="37.07" y="14.06" width="1.41" height="1.36"/><rect class="cls-12" x="37.07" y="19.5" width="1.41" height="2.72"/><rect class="cls-12" x="37.07" y="23.58" width="1.41" height="1.36"/><rect class="cls-12" x="37.07" y="26.29" width="1.41" height="6.8"/><rect class="cls-12" x="37.07" y="35.81" width="1.41" height="1.36"/><rect class="cls-12" x="37.07" y="39.88" width="1.41" height="1.36"/><rect class="cls-12" x="37.07" y="43.97" width="1.41" height="1.36"/><rect class="cls-12" x="37.07" y="46.68" width="1.41" height="1.36"/><rect class="cls-12" x="37.07" y="49.4" width="1.41" height="1.36"/><rect class="cls-12" x="37.07" y="52.12" width="1.41" height="1.36"/><rect class="cls-12" x="37.07" y="54.84" width="1.41" height="1.36"/><rect class="cls-12" x="38.48" y="7.27" width="1.41" height="1.36"/><rect class="cls-12" x="38.48" y="15.42" width="1.41" height="5.43"/><rect class="cls-12" x="38.48" y="22.22" width="1.41" height="1.36"/><rect class="cls-12" x="38.48" y="26.29" width="1.41" height="1.36"/><rect class="cls-12" x="38.48" y="29.02" width="1.41" height="1.36"/><rect class="cls-12" x="38.48" y="31.74" width="1.41" height="1.36"/><rect class="cls-12" x="38.48" y="34.45" width="1.41" height="4.07"/><rect class="cls-12" x="38.48" y="43.97" width="1.41" height="2.72"/><rect class="cls-12" x="38.48" y="48.04" width="1.41" height="1.36"/><rect class="cls-12" x="38.48" y="50.76" width="1.41" height="5.43"/><rect class="cls-12" x="39.89" y="7.27" width="1.41" height="2.72"/><rect class="cls-12" x="39.89" y="11.34" width="1.41" height="1.36"/><rect class="cls-12" x="39.89" y="14.06" width="1.41" height="1.36"/><rect class="cls-12" x="39.89" y="16.79" width="1.41" height="1.36"/><rect class="cls-12" x="39.89" y="20.86" width="1.41" height="4.07"/><rect class="cls-12" x="39.89" y="26.29" width="1.41" height="8.16"/><rect class="cls-12" x="39.89" y="37.17" width="1.41" height="4.07"/><rect class="cls-12" x="39.89" y="43.97" width="1.41" height="5.43"/><rect class="cls-12" x="39.89" y="50.76" width="1.41" height="1.36"/><rect class="cls-12" x="39.89" y="53.47" width="1.41" height="2.72"/><rect class="cls-12" x="41.28" y="7.27" width="1.41" height="2.72"/><rect class="cls-12" x="41.28" y="15.42" width="1.41" height="1.36"/><rect class="cls-12" x="41.28" y="19.5" width="1.41" height="1.36"/><rect class="cls-12" x="41.28" y="22.22" width="1.41" height="1.36"/><rect class="cls-12" x="41.28" y="29.02" width="1.41" height="2.72"/><rect class="cls-12" x="41.28" y="33.09" width="1.41" height="1.36"/><rect class="cls-12" x="41.28" y="35.81" width="1.41" height="1.36"/><rect class="cls-12" x="41.28" y="45.33" width="1.41" height="5.43"/><rect class="cls-12" x="41.28" y="52.12" width="1.41" height="2.72"/><rect class="cls-12" x="42.69" y="11.34" width="1.41" height="1.36"/><rect class="cls-12" x="42.69" y="16.79" width="1.41" height="1.36"/><rect class="cls-12" x="42.69" y="19.5" width="1.41" height="2.72"/><rect class="cls-12" x="42.69" y="23.58" width="1.41" height="2.72"/><rect class="cls-12" x="42.69" y="27.65" width="1.41" height="5.43"/><rect class="cls-12" x="42.69" y="35.81" width="1.41" height="4.07"/><rect class="cls-12" x="42.69" y="42.61" width="1.41" height="1.36"/><rect class="cls-12" x="42.69" y="46.68" width="1.41" height="1.36"/><rect class="cls-12" x="42.69" y="49.4" width="1.41" height="1.36"/><rect class="cls-12" x="42.69" y="54.84" width="1.41" height="2.72"/><rect class="cls-12" x="44.1" y="9.98" width="1.41" height="2.72"/><rect class="cls-12" x="44.1" y="14.06" width="1.41" height="2.72"/><rect class="cls-12" x="44.1" y="22.22" width="1.41" height="1.36"/><rect class="cls-12" x="44.1" y="27.65" width="1.41" height="4.07"/><rect class="cls-12" x="44.1" y="37.17" width="1.41" height="1.36"/><rect class="cls-12" x="44.1" y="39.88" width="1.41" height="1.36"/><rect class="cls-12" x="44.1" y="42.61" width="1.41" height="1.36"/><rect class="cls-12" x="44.1" y="45.33" width="1.41" height="6.8"/><rect class="cls-12" x="44.1" y="53.47" width="1.41" height="1.36"/><rect class="cls-12" x="44.1" y="56.2" width="1.41" height="1.36"/><rect class="cls-12" x="45.5" y="19.5" width="1.41" height="5.43"/><rect class="cls-12" x="45.5" y="29.02" width="1.41" height="2.72"/><rect class="cls-12" x="45.5" y="33.09" width="1.41" height="2.72"/><rect class="cls-12" x="45.5" y="37.17" width="1.41" height="1.36"/><rect class="cls-12" x="45.5" y="43.97" width="1.41" height="2.72"/><rect class="cls-12" x="45.5" y="50.76" width="1.41" height="1.36"/><rect class="cls-12" x="45.5" y="54.84" width="1.41" height="1.36"/><rect class="cls-12" x="46.9" y="7.27" width="1.41" height="9.52"/><rect class="cls-12" x="46.9" y="18.14" width="1.41" height="1.36"/><rect class="cls-12" x="46.9" y="23.58" width="1.41" height="1.36"/><rect class="cls-12" x="46.9" y="29.02" width="1.41" height="1.36"/><rect class="cls-12" x="46.9" y="34.45" width="1.41" height="2.72"/><rect class="cls-12" x="46.9" y="39.88" width="1.41" height="4.07"/><rect class="cls-12" x="46.9" y="45.33" width="1.41" height="1.36"/><rect class="cls-12" x="46.9" y="48.04" width="1.41" height="1.36"/><rect class="cls-12" x="46.9" y="50.76" width="1.41" height="1.36"/><rect class="cls-12" x="48.31" y="7.27" width="1.41" height="1.36"/><rect class="cls-12" x="48.31" y="15.42" width="1.41" height="1.36"/><rect class="cls-12" x="48.31" y="20.86" width="1.41" height="2.72"/><rect class="cls-12" x="48.31" y="26.29" width="1.41" height="1.36"/><rect class="cls-12" x="48.31" y="29.02" width="1.41" height="2.72"/><rect class="cls-12" x="48.31" y="33.09" width="1.41" height="2.72"/><rect class="cls-12" x="48.31" y="39.88" width="1.41" height="1.36"/><rect class="cls-12" x="48.31" y="45.33" width="1.41" height="1.36"/><rect class="cls-12" x="48.31" y="50.76" width="1.41" height="5.43"/><rect class="cls-12" x="49.71" y="7.27" width="1.41" height="1.36"/><rect class="cls-12" x="49.71" y="9.98" width="1.41" height="4.07"/><rect class="cls-12" x="49.71" y="15.42" width="1.41" height="1.36"/><rect class="cls-12" x="49.71" y="22.22" width="1.41" height="1.36"/><rect class="cls-12" x="49.71" y="24.93" width="1.41" height="1.36"/><rect class="cls-12" x="49.71" y="27.65" width="1.41" height="1.36"/><rect class="cls-12" x="49.71" y="30.38" width="1.41" height="1.36"/><rect class="cls-12" x="49.71" y="33.09" width="1.41" height="2.72"/><rect class="cls-12" x="49.71" y="39.88" width="1.41" height="1.36"/><rect class="cls-12" x="49.71" y="42.61" width="1.41" height="1.36"/><rect class="cls-12" x="49.71" y="45.33" width="1.41" height="6.8"/><rect class="cls-12" x="49.71" y="53.47" width="1.41" height="1.36"/><rect class="cls-12" x="51.12" y="7.27" width="1.41" height="1.36"/><rect class="cls-12" x="51.12" y="9.98" width="1.41" height="4.07"/><rect class="cls-12" x="51.12" y="15.42" width="1.41" height="1.36"/><rect class="cls-12" x="51.12" y="18.14" width="1.41" height="2.72"/><rect class="cls-12" x="51.12" y="26.29" width="1.41" height="4.07"/><rect class="cls-12" x="51.12" y="34.45" width="1.41" height="4.07"/><rect class="cls-12" x="51.12" y="39.88" width="1.41" height="1.36"/><rect class="cls-12" x="51.12" y="43.97" width="1.41" height="2.72"/><rect class="cls-12" x="51.12" y="48.04" width="1.41" height="1.36"/><rect class="cls-12" x="51.12" y="50.76" width="1.41" height="2.72"/><rect class="cls-12" x="52.53" y="7.27" width="1.41" height="1.36"/><rect class="cls-12" x="52.53" y="9.98" width="1.41" height="4.07"/><rect class="cls-12" x="52.53" y="15.42" width="1.41" height="1.36"/><rect class="cls-12" x="52.53" y="23.58" width="1.41" height="1.36"/><rect class="cls-12" x="52.53" y="33.09" width="1.41" height="1.36"/><rect class="cls-12" x="52.53" y="35.81" width="1.41" height="1.36"/><rect class="cls-12" x="52.53" y="38.52" width="1.41" height="1.36"/><rect class="cls-12" x="52.53" y="43.97" width="1.41" height="1.36"/><rect class="cls-12" x="52.53" y="49.4" width="1.41" height="2.72"/><rect class="cls-12" x="52.53" y="54.84" width="1.41" height="2.72"/><rect class="cls-12" x="53.94" y="7.27" width="1.41" height="1.36"/><rect class="cls-12" x="53.94" y="15.42" width="1.41" height="1.36"/><rect class="cls-12" x="53.94" y="18.14" width="1.41" height="4.07"/><rect class="cls-12" x="53.94" y="29.02" width="1.41" height="1.36"/><rect class="cls-12" x="53.94" y="33.09" width="1.41" height="1.36"/><rect class="cls-12" x="53.94" y="35.81" width="1.41" height="2.72"/><rect class="cls-12" x="53.94" y="39.88" width="1.41" height="1.36"/><rect class="cls-12" x="53.94" y="42.61" width="1.41" height="1.36"/><rect class="cls-12" x="53.94" y="45.33" width="1.41" height="2.72"/><rect class="cls-12" x="53.94" y="49.4" width="1.41" height="1.36"/><rect class="cls-12" x="53.94" y="53.47" width="1.41" height="1.36"/><rect class="cls-12" x="55.33" y="7.27" width="1.41" height="9.52"/><rect class="cls-12" x="55.33" y="18.14" width="1.41" height="2.72"/><rect class="cls-12" x="55.33" y="22.22" width="1.41" height="1.36"/><rect class="cls-12" x="55.33" y="24.93" width="1.41" height="2.72"/><rect class="cls-12" x="55.33" y="30.38" width="1.41" height="2.72"/><rect class="cls-12" x="55.33" y="38.52" width="1.41" height="2.72"/><rect class="cls-12" x="55.33" y="42.61" width="1.41" height="1.36"/><rect class="cls-12" x="55.33" y="45.33" width="1.41" height="4.07"/><rect class="cls-12" x="55.33" y="50.76" width="1.41" height="2.72"/><rect class="cls-12" x="55.33" y="54.84" width="1.41" height="2.72"/></g></g></g><g id="steinfeldt_Name"><g class="cls-13"><text class="cls-10" transform="translate(3.25 89.78) scale(.9 1)"><tspan x="0" y="0">S</tspan></text><text class="cls-8" transform="translate(3.25 89.78) scale(.9 1)"><tspan x="0" y="0">S</tspan></text><text class="cls-11" transform="translate(26.65 89.78) scale(.9 1)"><tspan x="0" y="0">TEINFELDT</tspan></text><text class="cls-6" transform="translate(26.65 89.78) scale(.9 1)"><tspan x="0" y="0">TEINFELDT</tspan></text><text class="cls-10" transform="translate(16.55 112.66) scale(.9 1)"><tspan x="0" y="0">P</tspan></text><text class="cls-8" transform="translate(16.55 112.66) scale(.9 1)"><tspan x="0" y="0">P</tspan></text><text class="cls-11" transform="translate(39.96 112.66) scale(.9 1)"><tspan x="0" y="0">AINTING</tspan></text><text class="cls-6" transform="translate(39.96 112.66) scale(.9 1)"><tspan x="0" y="0">AINTING</tspan></text></g></g><g id="Layer_4"><image width="396" height="36" transform="translate(2.88 201.84) scale(.24)" xlink:href="final2.png"/><text/><text class="cls-7" transform="translate(3.43 212.7)"><tspan class="cls-14"><tspan x="0" y="0">Mike Steinfeldt</tspan></tspan><tspan class="cls-5"><tspan x="18.87" y="6">Owner/Painter</tspan></tspan></text><text class="cls-1" transform="translate(18.8 223.13)"><tspan class="cls-9" x="0" y="0">29074 County Highway d4</tspan><tspan class="cls-15" x="61.06" y="0">1</tspan></text><text class="cls-3" transform="translate(29.34 227.27)"><tspan x="0" y="0" xml:space="preserve">Eldora, IA  50627</tspan></text><text class="cls-2" transform="translate(2.64 235.6)"><tspan x="0" y="0">steinfeldtpainting@yahoo.com</tspan></text></g></svg>